<svg xmlns="http://www.w3.org/2000/svg" width="163.446" height="51.797" viewBox="0 0 163.446 51.797">
  <g id="Group_8" data-name="Group 8" transform="translate(-151.6 -408.956)">
    <g id="Group_1" data-name="Group 1" transform="translate(151.6 417.756)">
      <path id="Path_1" data-name="Path 1" d="M228.668,438.757V435.95h-7.987V466.2h7.987v-15.86c0-4.7,3.85-6.367,7.147-6.367h.6v-7.932h-.6c-2.367,0-5,.357-7.147,2.714" transform="translate(-165.674 -423.255)" fill="#fff"/>
      <rect id="Rectangle_1" data-name="Rectangle 1" width="7.987" height="30.213" transform="translate(73.805 12.733)" fill="#fff"/>
      <path id="Path_2" data-name="Path 2" d="M278.957,456.394a7.609,7.609,0,0,1-5.595,2.1c-3.323,0-7.2-1.94-7.2-7.405,0-4.425,3.008-7.518,7.314-7.518a7.811,7.811,0,0,1,5.117,2.015l.431.386,5.092-5.342-.418-.409A13.609,13.609,0,0,0,273.362,436c-9.227,0-15.189,5.925-15.189,15.094s5.962,15.093,15.189,15.093a14.657,14.657,0,0,0,11-4.5l.434-.424-5.424-5.279Z" transform="translate(-173.312 -423.264)" fill="#fff"/>
      <rect id="Rectangle_2" data-name="Rectangle 2" width="7.931" height="42.905" transform="translate(144.412 0.041)" fill="#fff"/>
      <rect id="Rectangle_3" data-name="Rectangle 3" width="7.931" height="42.905" transform="translate(155.515 0.041)" fill="#fff"/>
      <path id="Path_3" data-name="Path 3" d="M205.719,432.73v-1.376a4.028,4.028,0,0,1,4.2-4.308h.6v-7.039h-.6c-6.054,0-12.184,3.9-12.184,11.347v1.378h-2.672v7.208h2.672v23.014h7.987V439.88h6.634V432.73Z" transform="translate(-160.454 -420.007)" fill="#fff"/>
      <path id="Path_4" data-name="Path 4" d="M317.984,440.168c-2.524-2.773-6.339-4.238-11.031-4.238-9.085,0-15.189,6.017-15.189,14.976,0,9.268,6.17,15.325,15.7,15.325,4.794,0,9.472-1.847,12.228-4.712l.408-.424-5.192-5.128-.418.433c-1.493,1.547-4.682,2.383-6.925,2.383-3.957,0-6.752-1.769-7.471-4.662h21.272l.049-.54C321.952,447.861,320.764,443.223,317.984,440.168Zm-17.6,7.131h-.061c1.065-2.654,3.52-4.158,6.858-4.158,2.093,0,5.6.558,6.421,4.158Z" transform="translate(-180.155 -423.251)" fill="#fff"/>
      <path id="Path_5" data-name="Path 5" d="M175.107,435.987v3.247a13.02,13.02,0,0,0-8.66-3.239A14.68,14.68,0,0,0,151.6,451.159c0,9.406,6.2,15.1,14.182,15.1a14.006,14.006,0,0,0,9.325-3.582v3.545h8.042V435.987Zm-8.356,23.357a8,8,0,1,1,7.639-7.991A7.821,7.821,0,0,1,166.751,459.344Z" transform="translate(-151.6 -423.263)" fill="#fff"/>
    </g>
    <g id="Group_6" data-name="Group 6" transform="translate(263.221 408.956)">
      <g id="Group_2" data-name="Group 2">
        <path id="Path_6" data-name="Path 6" d="M319.952,417.2a1.576,1.576,0,0,1-1.112-.454,17.329,17.329,0,0,0-12.176-4.729c-4.911,0-9.457,1.745-12.163,4.667a1.586,1.586,0,0,1-2.208.107,1.51,1.51,0,0,1-.108-2.163c3.288-3.552,8.7-5.673,14.479-5.673a20.506,20.506,0,0,1,14.4,5.638,1.51,1.51,0,0,1-.013,2.166A1.577,1.577,0,0,1,319.952,417.2Z" transform="translate(-291.779 -408.956)" fill="#fff"/>
      </g>
      <g id="Group_3" data-name="Group 3" transform="translate(3.366 6.157)">
        <path id="Path_7" data-name="Path 7" d="M317.5,423.581a1.578,1.578,0,0,1-.937-.307c-2.491-1.83-5.3-3.524-8.978-3.524-3.9,0-6.659,1.667-9.059,3.468a1.585,1.585,0,0,1-2.192-.284,1.51,1.51,0,0,1,.29-2.147,17.616,17.616,0,0,1,10.962-4.1c4.6,0,8.072,2.091,10.855,4.136a1.512,1.512,0,0,1,.313,2.144A1.577,1.577,0,0,1,317.5,423.581Z" transform="translate(-296.007 -416.688)" fill="#fff"/>
      </g>
      <g id="Group_4" data-name="Group 4" transform="translate(6.961 12.195)">
        <path id="Path_8" data-name="Path 8" d="M314.768,429.482a1.581,1.581,0,0,1-.84-.241c-1.9-1.186-3.21-1.907-5.427-1.907a9.462,9.462,0,0,0-5.573,1.87,1.584,1.584,0,0,1-2.16-.466,1.513,1.513,0,0,1,.475-2.115,12.075,12.075,0,0,1,14.37.037,1.514,1.514,0,0,1,.476,2.115A1.572,1.572,0,0,1,314.768,429.482Z" transform="translate(-300.521 -424.271)" fill="#fff"/>
      </g>
      <g id="Group_5" data-name="Group 5" transform="translate(8.525 15.332)" opacity="0.44">
        <path id="Path_9" data-name="Path 9" d="M302.485,428.211" transform="translate(-302.485 -428.211)" fill="#fff"/>
      </g>
    </g>
  </g>
</svg>
